<?xml version="1.0" encoding="utf-8"?>
<!-- Generator: Adobe Illustrator 19.1.0, SVG Export Plug-In . SVG Version: 6.00 Build 0)  -->
<svg version="1.1" id="Capa_1" xmlns="http://www.w3.org/2000/svg" xmlns:xlink="http://www.w3.org/1999/xlink" x="0px" y="0px"
	 viewBox="-495 368.4 32.6 32.6" style="enable-background:new -495 368.4 32.6 32.6;" xml:space="preserve">
<style type="text/css">
	.st0{fill:#FFFFFF;}
</style>
<g>
	<path class="st0" d="M-462.9,385.2h-31.6c-0.3,0-0.5-0.2-0.5-0.5c0-0.3,0.2-0.5,0.5-0.5h31.6c0.3,0,0.5,0.2,0.5,0.5
		C-462.4,385-462.6,385.2-462.9,385.2z"/>
	<path class="st0" d="M-482,397.7c-0.1,0-0.3,0-0.4-0.1l-12.5-12.5c-0.1-0.1-0.1-0.2-0.1-0.4s0.1-0.3,0.1-0.4l12.5-12.5
		c0.2-0.2,0.5-0.2,0.7,0c0.2,0.2,0.2,0.5,0,0.7l-12.2,12.2l12.2,12.2c0.2,0.2,0.2,0.5,0,0.7C-481.7,397.7-481.8,397.7-482,397.7z"/>
</g>
</svg>
